/* XPM */
static char * chest_lock_xpm[] = {
"14 14 43 1",
" 	c #463E32",
".	c #413B2F",
"+	c #453D31",
"@	c #332E25",
"#	c #AB792D",
"$	c #8F691D",
"%	c #A47227",
"&	c #855C1F",
"*	c #8B6224",
"=	c #A76E1F",
"-	c #28241D",
";	c #443C30",
">	c #A26B23",
",	c #885919",
"'	c #CDCDCD",
")	c #A5A5A5",
"!	c #2A251D",
"~	c #7F5F22",
"{	c #956C2E",
"]	c #795825",
"^	c #767676",
"/	c #919191",
"(	c #926323",
"_	c #90662A",
":	c #2B261F",
"<	c #363026",
"[	c #2C271F",
"}	c #1F1C17",
"|	c #775A30",
"1	c #73562E",
"2	c #614927",
"3	c #868686",
"4	c #C2C2C2",
"5	c #755429",
"6	c #453C2F",
"7	c #8E6126",
"8	c #734F1E",
"9	c #825B26",
"0	c #84622F",
"a	c #2C251D",
"b	c #2A251E",
"c	c #27231E",
"d	c #211D17",
" ...  +.     @",
" #$$$%&*##%=#-",
";>===,'),>>>=!",
" ~~~{]^^/~(__:",
".@<<<[^^)<<@@}",
" |1||23345|||:",
"6(7778))'7779!",
" ###=$##%%%#{-",
".$$$#%%$$$=#~-",
" %%##$$$$%%%_-",
"6>=>>>=====>7!",
" ###$#$$$$$%{:",
" {~~{{~{{~_{0:",
"!!abbab!!!bcbd"};
