/* XPM */
static char * chest_top_xpm[] = {
"14 14 21 1",
" 	c #2A251D",
".	c #362F25",
"+	c #382F25",
"@	c #352F26",
"#	c #322D26",
"$	c #332E25",
"%	c #373127",
"&	c #84622F",
"*	c #7F5F22",
"=	c #956C2E",
"-	c #90662A",
";	c #AB792D",
">	c #8F691D",
",	c #A47227",
"'	c #8E6126",
")	c #A76E1F",
"!	c #A26B23",
"~	c #926323",
"{	c #2B261F",
"]	c #363026",
"^	c #28241D",
" .+@@+@...@#@$",
"%&**==*==*-=&%",
"%=;;>;>>>>>,=%",
".')!!!)))))!'.",
"%-,;;>>>>,,,-$",
"$*>>;,,>>>);*$",
"%=;;)>;;,,,;=$",
".~!!!!)))!!!~.",
"%=,;;;>>>);;=%",
"$*,,,;>,,,,>*$",
"%*>>;;>;>>),-%",
"@')))))))!!!~.",
"%&~--*****-*&$",
"{$$$%%]$%%%%%^"};
