/* XPM */
static char * chest_side_xpm[] = {
"14 14 32 1",
" 	c #463E32",
".	c #413B2F",
"+	c #453D31",
"@	c #332E25",
"#	c #8F691D",
"$	c #A47227",
"%	c #AB792D",
"&	c #A76E1F",
"*	c #28241D",
"=	c #443C30",
"-	c #A26B23",
";	c #2A251D",
">	c #7F5F22",
",	c #956C2E",
"'	c #926323",
")	c #90662A",
"!	c #2B261F",
"~	c #363026",
"{	c #373127",
"]	c #1F1C17",
"^	c #775A30",
"/	c #73562E",
"(	c #695229",
"_	c #755429",
":	c #453C2F",
"<	c #8E6126",
"[	c #825B26",
"}	c #84622F",
"|	c #2C251D",
"1	c #2A251E",
"2	c #27231E",
"3	c #211D17",
" ...  +.     @",
" ####$$%%%$&%*",
"=-&&&&&&&---&;",
" >>>,,>,>>'))!",
".@~~~{@~~~~@@]",
" ^/^^^(((_^^^!",
":'<<<<'''<<<[;",
" %%%&#%%$$$%,*",
".###%$$###&%>*",
" $$%%####$$$)*",
":-&---&&&&&-<;",
" %%%#%#####$,!",
" ,>>,,>,,>),}!",
";;|11|1;;;1213"};
