/* XPM */
static char *dirt_6x31756300019[] = {
/* columns rows colors chars-per-pixel */
"96 48 7 1 ",
"  c #593D29",
". c #79553A",
"X c #745844",
"o c #6C6C6C",
"O c #966C4A",
"+ c #B9855C",
"@ c gray53",
/* pixels */
"+OO..+OO.. ..+.++OO..+OO.. ..+.++OO..+OO.. ..+.++OO..+OO.. ..+.++OO..+OO.. ..+.++OO..+OO.. ..+.+",
".O ..O@ .+O.+O  .O ..O@ .+O.+O  .O ..O@ .+O.+O  .O ..O@ .+O.+O  .O ..O@ .+O.+O  .O ..O@ .+O.+O  ",
"+.. +...+...  +.+.. +...+...  +.+.. +...+...  +.+.. +...+...  +.+.. +...+...  +.+.. +...+...  +.",
"Oo+.O .+OO.O.+O.Oo+.O .+OO.O.+O.Oo+.O .+OO.O.+O.Oo+.O .+OO.O.+O.Oo+.O .+OO.O.+O.Oo+.O .+OO.O.+O.",
"O.O+ O..O .o.O .O.O+ O..O .o.O .O.O+ O..O .o.O .O.O+ O..O .o.O .O.O+ O..O .o.O .O.O+ O..O .o.O .",
". OO.O   .. ...+. OO.O   .. ...+. OO.O   .. ...+. OO.O   .. ...+. OO.O   .. ...+. OO.O   .. ...+",
"+...@..++.++.O.O+...@..++.++.O.O+...@..++.++.O.O+...@..++.++.O.O+...@..++.++.O.O+...@..++.++.O.O",
"..++OO..O OO..OO..++OO..O OO..OO..++OO..O OO..OO..++OO..O OO..OO..++OO..O OO..OO..++OO..O OO..OO",
"O..O.O. .OO... .O..O.O. .OO... .O..O.O. .OO... .O..O.O. .OO... .O..O.O. .OO... .O..O.O. .OO... .",
".O ..  .....++.O.O ..  .....++.O.O ..  .....++.O.O ..  .....++.O.O ..  .....++.O.O ..  .....++.O",
".O.++.+O ++ OO@..O.++.+O ++ OO@..O.++.+O ++ OO@..O.++.+O ++ OO@..O.++.+O ++ OO@..O.++.+O ++ OO@.",
"O..OO+.OoOO. O. O..OO+.OoOO. O. O..OO+.OoOO. O. O..OO+.OoOO. O. O..OO+.OoOO. O. O..OO+.OoOO. O. ",
". O.OO+.......++. O.OO+.......++. O.OO+.......++. O.OO+.......++. O.OO+.......++. O.OO+.......++",
".O..X.OO. + .+OO.O..X.OO. + .+OO.O..X.OO. + .+OO.O..X.OO. + .+OO.O..X.OO. + .+OO.O..X.OO. + .+OO",
"O. +. . ++.O..OOO. +. . ++.O..OOO. +. . ++.O..OOO. +. . ++.O..OOO. +. . ++.O..OOO. +. . ++.O..OO",
"O.+OO.@.OO..OO. O.+OO.@.OO..OO. O.+OO.@.OO..OO. O.+OO.@.OO..OO. O.+OO.@.OO..OO. O.+OO.@.OO..OO. ",
"+OO..+OO.. ..+.++OO..+OO.. ..+.++OO..+OO.. ..+.++OO..+OO.. ..+.++OO..+OO.. ..+.++OO..+OO.. ..+.+",
".O ..O@ .+O.+O  .O ..O@ .+O.+O  .O ..O@ .+O.+O  .O ..O@ .+O.+O  .O ..O@ .+O.+O  .O ..O@ .+O.+O  ",
"+.. +...+...  +.+.. +...+...  +.+.. +...+...  +.+.. +...+...  +.+.. +...+...  +.+.. +...+...  +.",
"Oo+.O .+OO.O.+O.Oo+.O .+OO.O.+O.Oo+.O .+OO.O.+O.Oo+.O .+OO.O.+O.Oo+.O .+OO.O.+O.Oo+.O .+OO.O.+O.",
"O.O+ O..O .o.O .O.O+ O..O .o.O .O.O+ O..O .o.O .O.O+ O..O .o.O .O.O+ O..O .o.O .O.O+ O..O .o.O .",
". OO.O   .. ...+. OO.O   .. ...+. OO.O   .. ...+. OO.O   .. ...+. OO.O   .. ...+. OO.O   .. ...+",
"+...@..++.++.O.O+...@..++.++.O.O+...@..++.++.O.O+...@..++.++.O.O+...@..++.++.O.O+...@..++.++.O.O",
"..++OO..O OO..OO..++OO..O OO..OO..++OO..O OO..OO..++OO..O OO..OO..++OO..O OO..OO..++OO..O OO..OO",
"O..O.O. .OO... .O..O.O. .OO... .O..O.O. .OO... .O..O.O. .OO... .O..O.O. .OO... .O..O.O. .OO... .",
".O ..  .....++.O.O ..  .....++.O.O ..  .....++.O.O ..  .....++.O.O ..  .....++.O.O ..  .....++.O",
".O.++.+O ++ OO@..O.++.+O ++ OO@..O.++.+O ++ OO@..O.++.+O ++ OO@..O.++.+O ++ OO@..O.++.+O ++ OO@.",
"O..OO+.OoOO. O. O..OO+.OoOO. O. O..OO+.OoOO. O. O..OO+.OoOO. O. O..OO+.OoOO. O. O..OO+.OoOO. O. ",
". O.OO+.......++. O.OO+.......++. O.OO+.......++. O.OO+.......++. O.OO+.......++. O.OO+.......++",
".O..X.OO. + .+OO.O..X.OO. + .+OO.O..X.OO. + .+OO.O..X.OO. + .+OO.O..X.OO. + .+OO.O..X.OO. + .+OO",
"O. +. . ++.O..OOO. +. . ++.O..OOO. +. . ++.O..OOO. +. . ++.O..OOO. +. . ++.O..OOO. +. . ++.O..OO",
"O.+OO.@.OO..OO. O.+OO.@.OO..OO. O.+OO.@.OO..OO. O.+OO.@.OO..OO. O.+OO.@.OO..OO. O.+OO.@.OO..OO. ",
"+OO..+OO.. ..+.++OO..+OO.. ..+.++OO..+OO.. ..+.++OO..+OO.. ..+.++OO..+OO.. ..+.++OO..+OO.. ..+.+",
".O ..O@ .+O.+O  .O ..O@ .+O.+O  .O ..O@ .+O.+O  .O ..O@ .+O.+O  .O ..O@ .+O.+O  .O ..O@ .+O.+O  ",
"+.. +...+...  +.+.. +...+...  +.+.. +...+...  +.+.. +...+...  +.+.. +...+...  +.+.. +...+...  +.",
"Oo+.O .+OO.O.+O.Oo+.O .+OO.O.+O.Oo+.O .+OO.O.+O.Oo+.O .+OO.O.+O.Oo+.O .+OO.O.+O.Oo+.O .+OO.O.+O.",
"O.O+ O..O .o.O .O.O+ O..O .o.O .O.O+ O..O .o.O .O.O+ O..O .o.O .O.O+ O..O .o.O .O.O+ O..O .o.O .",
". OO.O   .. ...+. OO.O   .. ...+. OO.O   .. ...+. OO.O   .. ...+. OO.O   .. ...+. OO.O   .. ...+",
"+...@..++.++.O.O+...@..++.++.O.O+...@..++.++.O.O+...@..++.++.O.O+...@..++.++.O.O+...@..++.++.O.O",
"..++OO..O OO..OO..++OO..O OO..OO..++OO..O OO..OO..++OO..O OO..OO..++OO..O OO..OO..++OO..O OO..OO",
"O..O.O. .OO... .O..O.O. .OO... .O..O.O. .OO... .O..O.O. .OO... .O..O.O. .OO... .O..O.O. .OO... .",
".O ..  .....++.O.O ..  .....++.O.O ..  .....++.O.O ..  .....++.O.O ..  .....++.O.O ..  .....++.O",
".O.++.+O ++ OO@..O.++.+O ++ OO@..O.++.+O ++ OO@..O.++.+O ++ OO@..O.++.+O ++ OO@..O.++.+O ++ OO@.",
"O..OO+.OoOO. O. O..OO+.OoOO. O. O..OO+.OoOO. O. O..OO+.OoOO. O. O..OO+.OoOO. O. O..OO+.OoOO. O. ",
". O.OO+.......++. O.OO+.......++. O.OO+.......++. O.OO+.......++. O.OO+.......++. O.OO+.......++",
".O..X.OO. + .+OO.O..X.OO. + .+OO.O..X.OO. + .+OO.O..X.OO. + .+OO.O..X.OO. + .+OO.O..X.OO. + .+OO",
"O. +. . ++.O..OOO. +. . ++.O..OOO. +. . ++.O..OOO. +. . ++.O..OOO. +. . ++.O..OOO. +. . ++.O..OO",
"O.+OO.@.OO..OO. O.+OO.@.OO..OO. O.+OO.@.OO..OO. O.+OO.@.OO..OO. O.+OO.@.OO..OO. O.+OO.@.OO..OO. "
};
