/* XPM */
static char *grass_side_6x31756300019[] = {
/* columns rows colors chars-per-pixel */
"96 48 21 1 ",
"  c #593D29",
". c #79553A",
"X c #745844",
"o c #6C6C6C",
"O c #966C4A",
"+ c #50842A",
"@ c #568C2D",
"# c #578F2E",
"$ c #58902E",
"% c #59922F",
"& c #5E9B31",
"* c #619F33",
"= c #62A033",
"- c #63A334",
"; c #65A635",
": c #6BB038",
"> c #72BB3C",
", c #75BF3D",
"< c #78C241",
"1 c #B9855C",
"2 c gray53",
/* pixels */
">*;&>*>;;:>:<@:;>-;&>*>;;:>:<@:->-;&>*>;;:>:<$:;>*;&>*>;;:>:<@:;>-;&>*>;;:>:<@:;>-;&>*>;;:>:<@:-",
">&>*<O>%<;>->&>&>&>*<O>@<;>;>&>&>&>*<O>@<;>*>&>&>&>*<O>$<;>=>&>&>&>*<O>@<;>->&>&>&>*<O>@<->->&>&",
";.<%>.*.>:;, +;.;.<%>.*.>:;, +;.;.<%>.-.>:;, +;.;.<%>.*.>:;, +;.;.<%>.*.>:;, +-.;.<%>.-.>:;, +;.",
"Oo1.= .1@O&O.1O.Oo1.* .1@O*O.1O.Oo1.* .1@O*O.1O.Oo1.* .1@O*O.1O.Oo1.* .1@O-O.1O.Oo1.* .1@O*O.1O.",
"O.O1 O..O .o.O .O.O1 O..O .o.O .O.O1 O..O .o.O .O.O1 O..O .o.O .O.O1 O..O .o.O .O.O1 O..O .o.O .",
". OO.O   .. ...1. OO.O   .. ...1. OO.O   .. ...1. OO.O   .. ...1. OO.O   .. ...1. OO.O   .. ...1",
"1...2..11.11.O.O1...2..11.11.O.O1...2..11.11.O.O1...2..11.11.O.O1...2..11.11.O.O1...2..11.11.O.O",
"..11OO..O OO..OO..11OO..O OO..OO..11OO..O OO..OO..11OO..O OO..OO..11OO..O OO..OO..11OO..O OO..OO",
"O..O.O. .OO... .O..O.O. .OO... .O..O.O. .OO... .O..O.O. .OO... .O..O.O. .OO... .O..O.O. .OO... .",
".O ..  .....11.O.O ..  .....11.O.O ..  .....11.O.O ..  .....11.O.O ..  .....11.O.O ..  .....11.O",
".O.11.1O 11 OO2..O.11.1O 11 OO2..O.11.1O 11 OO2..O.11.1O 11 OO2..O.11.1O 11 OO2..O.11.1O 11 OO2.",
"O..OO1.OoOO. O. O..OO1.OoOO. O. O..OO1.OoOO. O. O..OO1.OoOO. O. O..OO1.OoOO. O. O..OO1.OoOO. O. ",
". O.OO1.......11. O.OO1.......11. O.OO1.......11. O.OO1.......11. O.OO1.......11. O.OO1.......11",
".O..X.OO. 1 .1OO.O..X.OO. 1 .1OO.O..X.OO. 1 .1OO.O..X.OO. 1 .1OO.O..X.OO. 1 .1OO.O..X.OO. 1 .1OO",
"O. 1. . 11.O..OOO. 1. . 11.O..OOO. 1. . 11.O..OOO. 1. . 11.O..OOO. 1. . 11.O..OOO. 1. . 11.O..OO",
"O.1OO.2.OO..OO. O.1OO.2.OO..OO. O.1OO.2.OO..OO. O.1OO.2.OO..OO. O.1OO.2.OO..OO. O.1OO.2.OO..OO. ",
"1OO..1OO.. ..1.11OO..1OO.. ..1.11OO..1OO.. ..1.11OO..1OO.. ..1.11OO..1OO.. ..1.11OO..1OO.. ..1.1",
".O ..O2 .1O.1O  .O ..O2 .1O.1O  .O ..O2 .1O.1O  .O ..O2 .1O.1O  .O ..O2 .1O.1O  .O ..O2 .1O.1O  ",
"1.. 1...1...  1.1.. 1...1...  1.1.. 1...1...  1.1.. 1...1...  1.1.. 1...1...  1.1.. 1...1...  1.",
"Oo1.O .1OO.O.1O.Oo1.O .1OO.O.1O.Oo1.O .1OO.O.1O.Oo1.O .1OO.O.1O.Oo1.O .1OO.O.1O.Oo1.O .1OO.O.1O.",
"O.O1 O..O .o.O .O.O1 O..O .o.O .O.O1 O..O .o.O .O.O1 O..O .o.O .O.O1 O..O .o.O .O.O1 O..O .o.O .",
". OO.O   .. ...1. OO.O   .. ...1. OO.O   .. ...1. OO.O   .. ...1. OO.O   .. ...1. OO.O   .. ...1",
"1...2..11.11.O.O1...2..11.11.O.O1...2..11.11.O.O1...2..11.11.O.O1...2..11.11.O.O1...2..11.11.O.O",
"..11OO..O OO..OO..11OO..O OO..OO..11OO..O OO..OO..11OO..O OO..OO..11OO..O OO..OO..11OO..O OO..OO",
"O..O.O. .OO... .O..O.O. .OO... .O..O.O. .OO... .O..O.O. .OO... .O..O.O. .OO... .O..O.O. .OO... .",
".O ..  .....11.O.O ..  .....11.O.O ..  .....11.O.O ..  .....11.O.O ..  .....11.O.O ..  .....11.O",
".O.11.1O 11 OO2..O.11.1O 11 OO2..O.11.1O 11 OO2..O.11.1O 11 OO2..O.11.1O 11 OO2..O.11.1O 11 OO2.",
"O..OO1.OoOO. O. O..OO1.OoOO. O. O..OO1.OoOO. O. O..OO1.OoOO. O. O..OO1.OoOO. O. O..OO1.OoOO. O. ",
". O.OO1.......11. O.OO1.......11. O.OO1.......11. O.OO1.......11. O.OO1.......11. O.OO1.......11",
".O..X.OO. 1 .1OO.O..X.OO. 1 .1OO.O..X.OO. 1 .1OO.O..X.OO. 1 .1OO.O..X.OO. 1 .1OO.O..X.OO. 1 .1OO",
"O. 1. . 11.O..OOO. 1. . 11.O..OOO. 1. . 11.O..OOO. 1. . 11.O..OOO. 1. . 11.O..OOO. 1. . 11.O..OO",
"O.1OO.2.OO..OO. O.1OO.2.OO..OO. O.1OO.2.OO..OO. O.1OO.2.OO..OO. O.1OO.2.OO..OO. O.1OO.2.OO..OO. ",
"1OO..1OO.. ..1.11OO..1OO.. ..1.11OO..1OO.. ..1.11OO..1OO.. ..1.11OO..1OO.. ..1.11OO..1OO.. ..1.1",
".O ..O2 .1O.1O  .O ..O2 .1O.1O  .O ..O2 .1O.1O  .O ..O2 .1O.1O  .O ..O2 .1O.1O  .O ..O2 .1O.1O  ",
"1.. 1...1...  1.1.. 1...1...  1.1.. 1...1...  1.1.. 1...1...  1.1.. 1...1...  1.1.. 1...1...  1.",
"Oo1.O .1OO.O.1O.Oo1.O .1OO.O.1O.Oo1.O .1OO.O.1O.Oo1.O .1OO.O.1O.Oo1.O .1OO.O.1O.Oo1.O .1OO.O.1O.",
"O.O1 O..O .o.O .O.O1 O..O .o.O .O.O1 O..O .o.O .O.O1 O..O .o.O .O.O1 O..O .o.O .O.O1 O..O .o.O .",
". OO.O   .. ...1. OO.O   .. ...1. OO.O   .. ...1. OO.O   .. ...1. OO.O   .. ...1. OO.O   .. ...1",
"1...2..11.11.O.O1...2..11.11.O.O1...2..11.11.O.O1...2..11.11.O.O1...2..11.11.O.O1...2..11.11.O.O",
"..11OO..O OO..OO..11OO..O OO..OO..11OO..O OO..OO..11OO..O OO..OO..11OO..O OO..OO..11OO..O OO..OO",
"O..O.O. .OO... .O..O.O. .OO... .O..O.O. .OO... .O..O.O. .OO... .O..O.O. .OO... .O..O.O. .OO... .",
".O ..  .....11.O.O ..  .....11.O.O ..  .....11.O.O ..  .....11.O.O ..  .....11.O.O ..  .....11.O",
".O.11.1O 11 OO2..O.11.1O 11 OO2..O.11.1O 11 OO2..O.11.1O 11 OO2..O.11.1O 11 OO2..O.11.1O 11 OO2.",
"O..OO1.OoOO. O. O..OO1.OoOO. O. O..OO1.OoOO. O. O..OO1.OoOO. O. O..OO1.OoOO. O. O..OO1.OoOO. O. ",
". O.OO1.......11. O.OO1.......11. O.OO1.......11. O.OO1.......11. O.OO1.......11. O.OO1.......11",
".O..X.OO. 1 .1OO.O..X.OO. 1 .1OO.O..X.OO. 1 .1OO.O..X.OO. 1 .1OO.O..X.OO. 1 .1OO.O..X.OO. 1 .1OO",
"O. 1. . 11.O..OOO. 1. . 11.O..OOO. 1. . 11.O..OOO. 1. . 11.O..OOO. 1. . 11.O..OOO. 1. . 11.O..OO",
"O.1OO.2.OO..OO. O.1OO.2.OO..OO. O.1OO.2.OO..OO. O.1OO.2.OO..OO. O.1OO.2.OO..OO. O.1OO.2.OO..OO. "
};
