/* XPM */
static char * grass_top_3x3_xpm[] = {
"48 48 46 1",
" 	c #64A335",
".	c #86C855",
"+	c #63A234",
"@	c #5A9430",
"#	c #59922F",
"$	c #609D33",
"%	c #578E2E",
"&	c #5E9B32",
"*	c #69AC37",
"=	c #64A535",
"-	c #5A932F",
";	c #71B83B",
">	c #4B7C28",
",	c #558B2D",
"'	c #70B73B",
")	c #6DB239",
"!	c #5B9530",
"~	c #67A936",
"{	c #73BC3C",
"]	c #5F9C32",
"^	c #62A134",
"/	c #68AB37",
"(	c #75C03E",
"_	c #50832A",
":	c #7BC345",
"<	c #6AAD38",
"[	c #52862B",
"}	c #79C243",
"|	c #75BF3E",
"1	c #548A2C",
"2	c #83C750",
"3	c #7FC54B",
"4	c #4F812A",
"5	c #6FB53A",
"6	c #6CB139",
"7	c #6AAE38",
"8	c #568C2D",
"9	c #58902E",
"0	c #65A635",
"a	c #52872B",
"b	c #53882C",
"c	c #5E9931",
"d	c #619F33",
"e	c #568D2E",
"f	c #71B93C",
"g	c #83C751",
" .+@#$%&*=&#-;>$ .+@@$,&*=$--'>$=. #@$%&)=!#$'>&",
"=&)=*%~%%{;=.$-]=&)=~%~#%;;^.&@$ &)~/,/#,';^.]#&",
")$,#&#^$^*;(#_%:)$,@--^$ <;(-[,})$,-&#$$=);|#[%:",
"_#&=$/1 %#$=$&',_@-==~,^,-^=$$'%_#-=$~,+,#]~$&'1",
")@|#||#(2_%;|%-$)@(@|(@(34%'|,@$)#|#||#(2_%;{,#$",
"/=_'%==/-=-#_#$=~=_'%==*@=@#_-$=//_;%==*-=##[&$=",
",*;$+#&,#-:(^'~$,*5=^-@%@@:|+;=$,/;$^#-##-:|$;=$",
"$@<&],)#/(#%$),{^@<@$15-=|@#$6%{$#7!$1'#~(#%$)%'",
"'<:{|%(*}{#+#+/8;*:{|%(*:;9^-+*1'/:;|%|*}|%^-+*%",
"=%:$$=|,-$+'$}+8=%:]]={%-^^;$:$#/#:$&/;%-^+;$:+%",
"<<=;#}$ 2['#+-0$~6~5#:^+2a5-$-=$*<='#:$ 2[;#$#=]",
"@(#'=#+-/^&b}11&#(#5=-^-++c%:%,&-|#'=@$@=+&1}%,&",
"2=,&*$#1-^&,<;1=2=%&/]-[]d-%)'[=:/%@<d@[&$&,<5[=",
"%'_^1=%.)^'*)#;|%;4^e/%.5+f*)-;|%f_ ,~%.) f*5@;|",
"')2[}|=^%==#f*][;)21}{++e==-|*&b))g,:{  , =@f/&,",
"#=#&;=  $2%f# @<-=@#f==^]2ef#$#<!=!!5=  $2,;#+#<",
"=.=#@$%&*=]-]5>$=.=@@$8$*=$#$5>$ .+##$%&6=---'>$",
"=&)=/,/%%;'^.&-&=&)=/,=#%;'^.&-&=&)=~,/%%ff .&-&",
")$1#&#$$+)'|@_%})$,@-#$ +)'|#_%}'$1#&#$^ )'|-a%}",
"_#-*$/1 ,#$~$&',_@-= /1^1#$/$&',_#&~$/,+%-$/^!',",
")%|#|(-(2_%'{,#])%|#|(#(2_%;{1#$)#|#||#(3_,'|,-&",
"//_'%==*!=##_]$=//_'%==*!=##_&$+/0_'%==*# @@a-^ ",
",/'$+#-%-@}|^;~],/'$+%$1--}|+'/$,/'$+#-%@@:(^'~$",
"$-*&$1;#=(-%$)%;$#/$$1'#=(-%$),{$-/&$,'@=|-%]),{",
";*:{(%|/:f%+@=*%'*:{|%|~}{%^#=*%;*:||%|*}|%^-=*%",
"/%:$]+{%#++{]:$%/%:$$={%#=^{$:$%=#:$&=|%-+^;$}$#",
"<<='@:]+2[;#]#=]<<='#:$^2[;#$#=$/*~;%}$^2a;#$-~$",
"#|#'+@+&=+][:,,&#|#'=#^&=^$[},,&#|-)~- -=^&[}%,@",
"2+%-~^#[&$@%65[~2+%-~^#[&$!,)'[~2=%-*$@a&$&1);,=",
"%;[^%*%.)=f*)@'|%;[^%*%.)=f*)-;(%;[+,=%.)^;/)#;(",
"5)2a}|++,+=@f<][5)2a}(=^,==-f<&[5)g,}|= ,==#;<$a",
"-0-]6==+$2%;@]@)-0-]6++ $2,;@$#)#=!-'=  $2,|#$-*",
"=. -#$1$<=]--;>$=2+##$%&6=@--'>$=. #-$%&*=]#&;>$",
"=$*=/%/#%f' .&#&=&)0~%=#%ff .&-&=&)=/,/#%;'^.&-&",
"'$1##-$$ );|-1%}'$1#&#^$ );(-[%}5&1#&#$$+);|#_%}",
">#&~^*, ,#$~^-;1_#&0^/1^,#$=$$',_#&=$/1^,#$~$&',",
"'%(#||#|:_%'{%#$)#|#((#(24%;|,-&)#|#|(#(g_,;{%#$",
"=*_'%==*@=@@[-$=/ b'100*#=##[-^ =/_'%==*!=##[!$=",
",*'$$@@%@@:|+;=$,/'$^#&%##:|^'~$,*'++%&8-!}|^'=$",
"$-/$$,'@=|@%$)%{$-/&$15#~|#%])%;$-<!$1'#=(-%$)%{",
";*:||%|*}|%+# *%;*|{|%|/:{%0-=*%;/:{(%|*}{#$#=*%",
"=#:$& |%#+^;$}$1=%2&&=|%-+^;$}$%/#:$$=;%-++{$:$%",
"/7~'#}$^2['#$#~$<7='-}$^2[;%$-=$** '#:$ 2a;#]@=]",
"#|#'=# -0^&b}%1$-(!'=#+-=+&1}%,&#|#'~#^-=^]a},%&",
"g=%&=$![&$&1)'10g=%-/ #b&$&1)',=20,&=+#[]^]%*5[~",
"%'_$%/%.)^'/)#'|%;[+,=%.)^;/)#;(%;[^%=%.)^f*)@f(",
"'72%}|  %0=-;<&[')g,}|  ,==#;<$[5)2[}| ^, =-f<][",
"#=--'=  $2,'#+&*#+--'= +$2,|#$-/#0-]'= ^$2,;@$#<"};
