/* XPM */
static char *grass_top_6x31756300020[] = {
/* columns rows colors chars-per-pixel */
"96 48 56 1 ",
"  c #4B7C28",
". c #4F812A",
"X c #50822A",
"o c #50832A",
"O c #52862B",
"+ c #52872B",
"@ c #53882C",
"# c #54892C",
"$ c #548A2C",
"% c #558B2D",
"& c #568C2D",
"* c #568D2E",
"= c #578E2E",
"- c #58902E",
"; c #58912F",
": c #59922F",
"> c #5A932F",
", c #5A9430",
"< c #5B9530",
"1 c #5D9831",
"2 c #5E9931",
"3 c #5E9B32",
"4 c #5F9C32",
"5 c #609D33",
"6 c #619F33",
"7 c #62A134",
"8 c #63A234",
"9 c #64A335",
"0 c #64A535",
"q c #65A635",
"w c #66A736",
"e c #66A836",
"r c #67A936",
"t c #68AB37",
"y c #69AC37",
"u c #6AAD38",
"i c #6AAE38",
"p c #6CB139",
"a c #6DB239",
"s c #6EB43A",
"d c #6FB53A",
"f c #6FB63B",
"g c #70B73B",
"h c #71B83B",
"j c #71B93C",
"k c #73BC3C",
"l c #75BF3E",
"z c #75C03E",
"x c #79C243",
"c c #7BC345",
"v c #7BC346",
"b c #7CC447",
"n c #7FC54B",
"m c #83C750",
"M c #83C751",
"N c #86C855",
/* pixels */
"9N8,:5=3y03:>h 59N8,,5%3y05>>g 50N9:,5=3a0<:5g 3qM9,:5=3t05:>g 59N7:>5$3y03:>h 50N9:,4=3ut3:5h 5",
"03a0y=r==kh0N5>403a0r=r:=hh7N3,593art%t:%gh7N4:3q3a0t=t==kh8N5:503a0t=t:=hh8N4,504art=0:$gg5m3:3",
"a5%:3:757yhz:o=ca5%,>>759uhz>O%xa5%>3:550ahl:O=ca5%:3:858uhz:o=xa5%:3:759ahz>.=xa5=:3:557ahl>o%c",
"o:305t$9=:5053g%o,>00r%7%>7055g=o:>05r%8%:4r53g$o:305t$8=:5055g%o:305t$7%=5y43j=.:>05t%8=:5r55h%",
"a,l:ll:zmo=hl=>5a,z,lz,zn.=gl%,5a:l:ll:zmo=hk%:5a,l:ll:zmo=gl&>5a:l=zz:zm.=hl$>4a:l:lz:zmo=hl%:5",
"t0og=00t>0>:o:50r0og=00y,0,:o>50ttoh=00y>0::O350t0og=90t>0>:o:50trOg=00r>8>:+>5qy0og=00y>0::o350",
"%yh58:3%:>cz7gr5%yd07>,=,,cl8h05%th57:>::>cl5h05%tg57:3%:>cl8gr5=yg58:3%:>cz7h05%th55:4%::cl5h05",
"5,u34%a:tz:=5a%k7,u,5$d>0l,:5p=k5:i<5$g:rz:=5a=g5,i55$a:tz:=5a&k5:y34%d:8z1-4a=k5:y55$g:rz:=5a=h",
"guckl=zyxk:8:8t&hyckl=zych-7>8y$gtchl=lyxl=7>8y=dycjl=luxk:8:7t&hycll=lrxh=7:9y=htckl=ltxk:7>8y=",
"0=c550l%>58g5x8&0=c440k=>77h5c5:t:c53th=>78h5c8=r=n63rk%>58g5x8&0:c540l=<87h5x7=y=c550k=:77h5x5:",
"uu0h:x59mOg:8>q5rprd:c78m+d>5>05yu0g:c59mOh:5:04yy0g:x48mOg:5>q5yy0d:c59mOg:5>05tu0h:c57mOh:5:05",
",z:g0:8>t73@x$$3:z:d0>7>882=c=%3>l:g0,5,083$x=%3,z,d0:8:t75Ox$$5:z>a0:8,093%x=%3:z,d0:73073$x=%3",
"m0%3y5:$>73%uh$0m0=3t4>O46>=agO0ct=,u6,O353%udO0m0=3r6,$38>%agOrm0=3t5:O453%ahO0m0%308:O355$yhO0",
"=go7$0=Na7gya:hl=h.7*t=Nd8jya>hl=jo9%r=Na9jyd,hl=g.7$r=Na0hta>hz=j.7%t=Na9hra:gl=ho7%t=Na0hya<hz",
"gamOxl07=00:jy4Oham$xk88*00>ly3@aaM%ck99%90,jt3%damOxl08%90:lu3Odam%xl98%00,ku,%dam%xl97%00>ju5%",
":0:3h0995m=j:9,u>0,:j0074m*j:5:u<0<<d0995m%h:8:u:0:3g0885m%k:5,y:y:>d0984m=j:8:y:0:3d0975M$h:5>u",
"0N0:,5=3y04>4d 50N0,,5&5y05:5d 59N8::5=3p0>>>g 50N9::5=3t03:>h 50N8,,8=3u03,,h 59M8:>5=3u0<>>g 5",
"03a0t%t==hg7N3>303a0t%0:=hg7N3>303a0r%t==jj9N3>303a0t=t==kg8N5>404p0r%0-=jj8N3,503aqt&0::jj9N4>3",
"a5$:3:558agl,o=xa5%,>:598agl:o=xg5$:3:579agl>+=xa5%::3850yhl:o=cp4=,3,888phl,o%xg5$:3:759ahz>O=x",
"o:>y5t$9%:5r53g%o,>09t$7$:5t53g%o:3r5t%8=>5t7<g%O:305r%8$:5r53g%.-304r=4=:4054h=o:3q7t$7%:5055g%",
"a=l:lz>zmo=gk%:4a=l:lz:zmo=hk$:5a:l:ll:zno%gl%>3a:z:zl:zmo=gl=>5d-k-zz>kn.=jl%>5a:l:zz>zmo%hk=>3",
"ttog=00y<0::o450ttog=00y<0::o358tqog=00y:9,,+>79t0.h=00t:0>:o:50rrOd=r0q,0,:O:70t9@g$qqy:0::O>50",
"%tg58:>=>,xl7hr4%tg58=5$>>xl8gt5%tg58:>=,,cz7gr5%yh48:,=:>cl7gr5=td47-4=:,cz8g05%tg55:3=::cl7gr5",
"5>y35$h:0z>=5a=h5:t55$g:0z>=5a%k5>t35%g,0l>=4a%k5>y45%g:tz:=5a=k8>y47+d:0l,=5a=h5>t35$g:tl:=5a=h",
"hyckz=ltcj=8,0y=gyckl=lrxk=7:0y=hycll=lyxl=7>0y=dycjl=luxk:7:7t&hyxkk=xrxk=7>9y%hyzkl=ltxl=7:9y=",
"t=c548k=:88k4c5=t=c550k=:07k5c5=0:c530l=>87h5x5:r=n63rk%:78g5x8&0:m24qk=:78k5x5=0=m530l=>79h5x5%",
"uu0g,c48mOh:4:04uu0g:c57mOh:5:05tyrh=x57m+h:5>r5yy0g:x48m@g:5>q5yyqd:x77m@g:5>85uu0g>x57m$g=5:t5",
":l:g8,83084Oc%%3:l:g0:73075Ox%%3:l>ar>9>073Ox=%,,z,d0:8:085@x$$5:l:aq>7>085@c=$3>z>g0:8>073$x=$3",
"m8=>r7:O35,=pdOrm8=>r7:O35<%agOrm0=>y5,+353$ah%0m0=3r6,$38>%agOrm0=3t8:O57>$ag@tm0=>t9:O353$ah$0",
"=hO7=y=Na0jya,gl=hO7=y=Na0jya>hz=hO8%0=Na7hta:hz=g.7$r=Na0hya>hz%hO7$0=Na7hya:gz=hO8%0=Na7gtu>gz",
"dam+xl88%80,ju4Odam+xz07%00>ju3OdaM%xl09%00:hu5+damOxl08%90:lu3OgamOxk98%00>kt3$dam=xl99%00<ju5O",
">q>4p0085m=h,4,a>q>4p8895m%h,5:a:0<>g0995m%l:5>y:0:3g0885m%k:5>y:q:3gt983m=k:7:t:0>>g0985m=h:9<y",
"0N9>:5$5u04>>h 50m8::5=3p0,>>g 50N9:>5=3y04:3h 59N8>:5=3t04:>h 59N9,,5=3t04:,j 50N8:<5=3y04:3h 5",
"05y0t=t:=jg9N3:303aqr=0:=jj9N3>303a0t%t:=hg7N3>303a0y=t==kh8N5:503a0t=0:=hg0N3>493ary%t:=hg7N3>3",
"g5$::>559ahl>$=xg5$:3:759ahz>O=xd3$:3:558ahl:o=xa5=:3:758yhz:o=ca5%,>>889ahz,O%xa5%:3:558ahl:o=x",
" :3r7y%9%:5r7>h$o:3q7t$7%:5055g%o:305t$7%:5r53g%o:305t$8=:5053h%o:,09r%5%:5044h=o:,05r$8%:5r53g%",
"g=z:ll:lco=gk=:5a:l:zz:zm.=hl%>3a:l:lz:zMo%hk=:5a:l:ll:lmo=hl=>5a:l,lz>lm.=hz%>4a:l:lz>zMo%hk=:5",
"0yog=00y,0,,O>50t9@g$qqy:0::O>790tog=00y<0::O<50t0og=00t:q::o:50trog=09y>8>:O:70t0og=00y<0::O<50",
"%yg55,,=,,cl8h05%tg57:3=::cl7gr5%yg88=3&><xl7g05%yg58:3%:>cz7g05%yg57>5%:>cz7h05%tg97=3%><xl7g05",
"5>t55%g,0l,=5a=k5>t35$d:rl:=4a=h5>u<5$g:0z>=5a=k5<u35%a:tz:=5a%z5,y37Oa>8z1-5a=h5:i<5%g:0z>=5a=k",
"hycll=lyxl=8:9y=hylkl=ltck=q>0y=htckz=lyxk:5:0y=juckl%ztxk:7:7t&gyckl=lyxk:8:8t=htckl=lyxk:5:0y=",
"0:c539l=:87h5x5$0=m330l=>87h5x5=t:c550h=>88k5c5=0=c53rl=>58g5x8&q:c550k=:77g5x7=t:c550h=>88k5c5=",
"tirg:x57mOg:5:r5ui0g>x57mOh=5>05yy9g:c59m+h:4,04yu0g:x58mOg:5>q5tyrg:x5qm@g:5:85yy0g:c58m+h:4,04",
":l:g0:9>q73@x=$5>z<g0:8>083$x=%3:l:gr:7>074+x%=3,l>g0:8>t75@x$$4:l:gq:8>q75$c=$5:l:gr:8>074+x%=3",
"M0=305<O353$ag$qM0=>t9:@353$ag%0mq%308:O474=ydOrm0=3t5:$>73%agOrm0=>t7:@47:$ag@qmq%309:O474=ydOr",
"=go5=t=Na7gta:gl=hO8%0=Na7hta:hz=hO7=0=Na7jya,jz=go7%r=Na7gya>hz=ho8$t=Na7hyu3gl=gO7=0=Na7jya,jz",
"gim=xl99=q0>hu3OgaM%xl99%00:hu5OdamOxl97%90>ju4OdgmOxh08=00:lu4OgaM$xg98$qq>gt<@damOxl97%90>ju4O",
":0>>g0995m%g:83y:8>>g0985m%l:5>t:q>4g0975m%h,5:u:0<,gr975m%k:5>y>0>>gr085m$k:83y:q>4g0975m%h,5:u"
};
