/* XPM */
static char *grass_side_3x31756300019[] = {
/* columns rows colors chars-per-pixel */
"48 48 20 1 ",
"  c #593D29",
". c #79553A",
"X c #745844",
"o c #6C6C6C",
"O c #966C4A",
"+ c #50842A",
"@ c #568C2D",
"# c #578F2E",
"$ c #59922F",
"% c #5E9B31",
"& c #619F33",
"* c #62A033",
"= c #63A334",
"- c #65A635",
"; c #6BB038",
": c #72BB3C",
"> c #75BF3D",
", c #78C241",
"< c #B9855C",
"1 c gray53",
/* pixels */
":&-%:&:--;:;,@;-:=-%:&:--;:;,@;-:&-%:&:--;:;,@;-",
":%:&,O:$,-:=:%:%:%:&,O:$,-:&:%:%:%:&,O:$,-:*:%:%",
"-.,$:.&.:;-> +-.-.,$:.&.:;-> +-.-.,$:.&.:;-> +-.",
"Oo<.& .<@O%O.<O.Oo<.& .<@O&O.<O.Oo<.* .<@O&O.<O.",
"O.O< O..O .o.O .O.O< O..O .o.O .O.O< O..O .o.O .",
". OO.O   .. ...<. OO.O   .. ...<. OO.O   .. ...<",
"<...1..<<.<<.O.O<...1..<<.<<.O.O<...1..<<.<<.O.O",
"..<<OO..O OO..OO..<<OO..O OO..OO..<<OO..O OO..OO",
"O..O.O. .OO... .O..O.O. .OO... .O..O.O. .OO... .",
".O ..  .....<<.O.O ..  .....<<.O.O ..  .....<<.O",
".O.<<.<O << OO1..O.<<.<O << OO1..O.<<.<O << OO1.",
"O..OO<.OoOO. O. O..OO<.OoOO. O. O..OO<.OoOO. O. ",
". O.OO<.......<<. O.OO<.......<<. O.OO<.......<<",
".O..X.OO. < .<OO.O..X.OO. < .<OO.O..X.OO. < .<OO",
"O. <. . <<.O..OOO. <. . <<.O..OOO. <. . <<.O..OO",
"O.<OO.1.OO..OO. O.<OO.1.OO..OO. O.<OO.1.OO..OO. ",
"<OO..<OO.. ..<.<<OO..<OO.. ..<.<<OO..<OO.. ..<.<",
".O ..O1 .<O.<O  .O ..O1 .<O.<O  .O ..O1 .<O.<O  ",
"<.. <...<...  <.<.. <...<...  <.<.. <...<...  <.",
"Oo<.O .<OO.O.<O.Oo<.O .<OO.O.<O.Oo<.O .<OO.O.<O.",
"O.O< O..O .o.O .O.O< O..O .o.O .O.O< O..O .o.O .",
". OO.O   .. ...<. OO.O   .. ...<. OO.O   .. ...<",
"<...1..<<.<<.O.O<...1..<<.<<.O.O<...1..<<.<<.O.O",
"..<<OO..O OO..OO..<<OO..O OO..OO..<<OO..O OO..OO",
"O..O.O. .OO... .O..O.O. .OO... .O..O.O. .OO... .",
".O ..  .....<<.O.O ..  .....<<.O.O ..  .....<<.O",
".O.<<.<O << OO1..O.<<.<O << OO1..O.<<.<O << OO1.",
"O..OO<.OoOO. O. O..OO<.OoOO. O. O..OO<.OoOO. O. ",
". O.OO<.......<<. O.OO<.......<<. O.OO<.......<<",
".O..X.OO. < .<OO.O..X.OO. < .<OO.O..X.OO. < .<OO",
"O. <. . <<.O..OOO. <. . <<.O..OOO. <. . <<.O..OO",
"O.<OO.1.OO..OO. O.<OO.1.OO..OO. O.<OO.1.OO..OO. ",
"<OO..<OO.. ..<.<<OO..<OO.. ..<.<<OO..<OO.. ..<.<",
".O ..O1 .<O.<O  .O ..O1 .<O.<O  .O ..O1 .<O.<O  ",
"<.. <...<...  <.<.. <...<...  <.<.. <...<...  <.",
"Oo<.O .<OO.O.<O.Oo<.O .<OO.O.<O.Oo<.O .<OO.O.<O.",
"O.O< O..O .o.O .O.O< O..O .o.O .O.O< O..O .o.O .",
". OO.O   .. ...<. OO.O   .. ...<. OO.O   .. ...<",
"<...1..<<.<<.O.O<...1..<<.<<.O.O<...1..<<.<<.O.O",
"..<<OO..O OO..OO..<<OO..O OO..OO..<<OO..O OO..OO",
"O..O.O. .OO... .O..O.O. .OO... .O..O.O. .OO... .",
".O ..  .....<<.O.O ..  .....<<.O.O ..  .....<<.O",
".O.<<.<O << OO1..O.<<.<O << OO1..O.<<.<O << OO1.",
"O..OO<.OoOO. O. O..OO<.OoOO. O. O..OO<.OoOO. O. ",
". O.OO<.......<<. O.OO<.......<<. O.OO<.......<<",
".O..X.OO. < .<OO.O..X.OO. < .<OO.O..X.OO. < .<OO",
"O. <. . <<.O..OOO. <. . <<.O..OOO. <. . <<.O..OO",
"O.<OO.1.OO..OO. O.<OO.1.OO..OO. O.<OO.1.OO..OO. "
};
