/* XPM */
static char * leaves5x5_xpm[] = {
"80 80 6 1",
" 	c None",
".	c #2A5115",
"+	c #3E771E",
"@	c #4B9225",
"#	c #1D380E",
"$	c #326018",
" .++@+  ..#  .+@ .++@+  ..#  .+@ .++@+  ..#  .+@ .++@+  ..#  .+@ .++@+  ..#  .+@",
"#..@@  ..#+  .@@#..@@  ..#+  .@@#..@@  ..#+  .@@#..@@  ..#+  .@@#..@@  ..#+  .@@",
"##$$@ .$.+@ .$@.##$$@ .$.+@ .$@.##$$@ .$.+@ .$@.##$$@ .$.+@ .$@.##$$@ .$.+@ .$@.",
"$#++ $$$.@@ $$..$#++ $$$.@@ $$..$#++ $$$.@@ $$..$#++ $$$.@@ $$..$#++ $$$.@@ $$..",
"$.@+ +$  @+$$+.$$.@+ +$  @+$$+.$$.@+ +$  @+$$+.$$.@+ +$  @+$$+.$$.@+ +$  @+$$+.$",
"$+@$@@.$$  $++ $$+@$@@.$$  $++ $$+@$@@.$$  $++ $$+@$@@.$$  $++ $$+@$@@.$$  $++ $",
".+@$@+#$+ @$@$  .+@$@+#$+ @$@$  .+@$@+#$+ @$@$  .+@$@+#$+ @$@$  .+@$@+#$+ @$@$  ",
".@$.@#+$+$@+@$  .@$.@#+$+$@+@$  .@$.@#+$+$@+@$  .@$.@#+$+$@+@$  .@$.@#+$+$@+@$  ",
"  .#+.@++.@@$+ .  .#+.@++.@@$+ .  .#+.@++.@@$+ .  .#+.@++.@@$+ .  .#+.@++.@@$+ .",
" +@#.$@+@$#+.@+. +@#.$@+@$#+.@+. +@#.$@+@$#+.@+. +@#.$@+@$#+.@+. +@#.$@+@$#+.@+.",
"+@@#$$@@+$$##+@#+@@#$$@@+$$##+@#+@@#$$@@+$$##+@#+@@#$$@@+$$##+@#+@@#$$@@+$$##+@#",
"@@+.$ @@$$+#.#+ @@+.$ @@$$+#.#+ @@+.$ @@$$+#.#+ @@+.$ @@$$+#.#+ @@+.$ @@$$+#.#+ ",
"@+. .  $+$+...# @+. .  $+$+...# @+. .  $+$+...# @+. .  $+$+...# @+. .  $+$+...# ",
"$+  $$ $++@$. .$$+  $$ $++@$. .$$+  $$ $++@$. .$$+  $$ $++@$. .$$+  $$ $++@$. .$",
"$$ ++$ +@+@   +$$$ ++$ +@+@   +$$$ ++$ +@+@   +$$$ ++$ +@+@   +$$$ ++$ +@+@   +$",
" . +@+ @@@.  $++ . +@+ @@@.  $++ . +@+ @@@.  $++ . +@+ @@@.  $++ . +@+ @@@.  $++",
" .++@+  ..#  .+@ .++@+  ..#  .+@ .++@+  ..#  .+@ .++@+  ..#  .+@ .++@+  ..#  .+@",
"#..@@  ..#+  .@@#..@@  ..#+  .@@#..@@  ..#+  .@@#..@@  ..#+  .@@#..@@  ..#+  .@@",
"##$$@ .$.+@ .$@.##$$@ .$.+@ .$@.##$$@ .$.+@ .$@.##$$@ .$.+@ .$@.##$$@ .$.+@ .$@.",
"$#++ $$$.@@ $$..$#++ $$$.@@ $$..$#++ $$$.@@ $$..$#++ $$$.@@ $$..$#++ $$$.@@ $$..",
"$.@+ +$  @+$$+.$$.@+ +$  @+$$+.$$.@+ +$  @+$$+.$$.@+ +$  @+$$+.$$.@+ +$  @+$$+.$",
"$+@$@@.$$  $++ $$+@$@@.$$  $++ $$+@$@@.$$  $++ $$+@$@@.$$  $++ $$+@$@@.$$  $++ $",
".+@$@+#$+ @$@$  .+@$@+#$+ @$@$  .+@$@+#$+ @$@$  .+@$@+#$+ @$@$  .+@$@+#$+ @$@$  ",
".@$.@#+$+$@+@$  .@$.@#+$+$@+@$  .@$.@#+$+$@+@$  .@$.@#+$+$@+@$  .@$.@#+$+$@+@$  ",
"  .#+.@++.@@$+ .  .#+.@++.@@$+ .  .#+.@++.@@$+ .  .#+.@++.@@$+ .  .#+.@++.@@$+ .",
" +@#.$@+@$#+.@+. +@#.$@+@$#+.@+. +@#.$@+@$#+.@+. +@#.$@+@$#+.@+. +@#.$@+@$#+.@+.",
"+@@#$$@@+$$##+@#+@@#$$@@+$$##+@#+@@#$$@@+$$##+@#+@@#$$@@+$$##+@#+@@#$$@@+$$##+@#",
"@@+.$ @@$$+#.#+ @@+.$ @@$$+#.#+ @@+.$ @@$$+#.#+ @@+.$ @@$$+#.#+ @@+.$ @@$$+#.#+ ",
"@+. .  $+$+...# @+. .  $+$+...# @+. .  $+$+...# @+. .  $+$+...# @+. .  $+$+...# ",
"$+  $$ $++@$. .$$+  $$ $++@$. .$$+  $$ $++@$. .$$+  $$ $++@$. .$$+  $$ $++@$. .$",
"$$ ++$ +@+@   +$$$ ++$ +@+@   +$$$ ++$ +@+@   +$$$ ++$ +@+@   +$$$ ++$ +@+@   +$",
" . +@+ @@@.  $++ . +@+ @@@.  $++ . +@+ @@@.  $++ . +@+ @@@.  $++ . +@+ @@@.  $++",
" .++@+  ..#  .+@ .++@+  ..#  .+@ .++@+  ..#  .+@ .++@+  ..#  .+@ .++@+  ..#  .+@",
"#..@@  ..#+  .@@#..@@  ..#+  .@@#..@@  ..#+  .@@#..@@  ..#+  .@@#..@@  ..#+  .@@",
"##$$@ .$.+@ .$@.##$$@ .$.+@ .$@.##$$@ .$.+@ .$@.##$$@ .$.+@ .$@.##$$@ .$.+@ .$@.",
"$#++ $$$.@@ $$..$#++ $$$.@@ $$..$#++ $$$.@@ $$..$#++ $$$.@@ $$..$#++ $$$.@@ $$..",
"$.@+ +$  @+$$+.$$.@+ +$  @+$$+.$$.@+ +$  @+$$+.$$.@+ +$  @+$$+.$$.@+ +$  @+$$+.$",
"$+@$@@.$$  $++ $$+@$@@.$$  $++ $$+@$@@.$$  $++ $$+@$@@.$$  $++ $$+@$@@.$$  $++ $",
".+@$@+#$+ @$@$  .+@$@+#$+ @$@$  .+@$@+#$+ @$@$  .+@$@+#$+ @$@$  .+@$@+#$+ @$@$  ",
".@$.@#+$+$@+@$  .@$.@#+$+$@+@$  .@$.@#+$+$@+@$  .@$.@#+$+$@+@$  .@$.@#+$+$@+@$  ",
"  .#+.@++.@@$+ .  .#+.@++.@@$+ .  .#+.@++.@@$+ .  .#+.@++.@@$+ .  .#+.@++.@@$+ .",
" +@#.$@+@$#+.@+. +@#.$@+@$#+.@+. +@#.$@+@$#+.@+. +@#.$@+@$#+.@+. +@#.$@+@$#+.@+.",
"+@@#$$@@+$$##+@#+@@#$$@@+$$##+@#+@@#$$@@+$$##+@#+@@#$$@@+$$##+@#+@@#$$@@+$$##+@#",
"@@+.$ @@$$+#.#+ @@+.$ @@$$+#.#+ @@+.$ @@$$+#.#+ @@+.$ @@$$+#.#+ @@+.$ @@$$+#.#+ ",
"@+. .  $+$+...# @+. .  $+$+...# @+. .  $+$+...# @+. .  $+$+...# @+. .  $+$+...# ",
"$+  $$ $++@$. .$$+  $$ $++@$. .$$+  $$ $++@$. .$$+  $$ $++@$. .$$+  $$ $++@$. .$",
"$$ ++$ +@+@   +$$$ ++$ +@+@   +$$$ ++$ +@+@   +$$$ ++$ +@+@   +$$$ ++$ +@+@   +$",
" . +@+ @@@.  $++ . +@+ @@@.  $++ . +@+ @@@.  $++ . +@+ @@@.  $++ . +@+ @@@.  $++",
" .++@+  ..#  .+@ .++@+  ..#  .+@ .++@+  ..#  .+@ .++@+  ..#  .+@ .++@+  ..#  .+@",
"#..@@  ..#+  .@@#..@@  ..#+  .@@#..@@  ..#+  .@@#..@@  ..#+  .@@#..@@  ..#+  .@@",
"##$$@ .$.+@ .$@.##$$@ .$.+@ .$@.##$$@ .$.+@ .$@.##$$@ .$.+@ .$@.##$$@ .$.+@ .$@.",
"$#++ $$$.@@ $$..$#++ $$$.@@ $$..$#++ $$$.@@ $$..$#++ $$$.@@ $$..$#++ $$$.@@ $$..",
"$.@+ +$  @+$$+.$$.@+ +$  @+$$+.$$.@+ +$  @+$$+.$$.@+ +$  @+$$+.$$.@+ +$  @+$$+.$",
"$+@$@@.$$  $++ $$+@$@@.$$  $++ $$+@$@@.$$  $++ $$+@$@@.$$  $++ $$+@$@@.$$  $++ $",
".+@$@+#$+ @$@$  .+@$@+#$+ @$@$  .+@$@+#$+ @$@$  .+@$@+#$+ @$@$  .+@$@+#$+ @$@$  ",
".@$.@#+$+$@+@$  .@$.@#+$+$@+@$  .@$.@#+$+$@+@$  .@$.@#+$+$@+@$  .@$.@#+$+$@+@$  ",
"  .#+.@++.@@$+ .  .#+.@++.@@$+ .  .#+.@++.@@$+ .  .#+.@++.@@$+ .  .#+.@++.@@$+ .",
" +@#.$@+@$#+.@+. +@#.$@+@$#+.@+. +@#.$@+@$#+.@+. +@#.$@+@$#+.@+. +@#.$@+@$#+.@+.",
"+@@#$$@@+$$##+@#+@@#$$@@+$$##+@#+@@#$$@@+$$##+@#+@@#$$@@+$$##+@#+@@#$$@@+$$##+@#",
"@@+.$ @@$$+#.#+ @@+.$ @@$$+#.#+ @@+.$ @@$$+#.#+ @@+.$ @@$$+#.#+ @@+.$ @@$$+#.#+ ",
"@+. .  $+$+...# @+. .  $+$+...# @+. .  $+$+...# @+. .  $+$+...# @+. .  $+$+...# ",
"$+  $$ $++@$. .$$+  $$ $++@$. .$$+  $$ $++@$. .$$+  $$ $++@$. .$$+  $$ $++@$. .$",
"$$ ++$ +@+@   +$$$ ++$ +@+@   +$$$ ++$ +@+@   +$$$ ++$ +@+@   +$$$ ++$ +@+@   +$",
" . +@+ @@@.  $++ . +@+ @@@.  $++ . +@+ @@@.  $++ . +@+ @@@.  $++ . +@+ @@@.  $++",
" .++@+  ..#  .+@ .++@+  ..#  .+@ .++@+  ..#  .+@ .++@+  ..#  .+@ .++@+  ..#  .+@",
"#..@@  ..#+  .@@#..@@  ..#+  .@@#..@@  ..#+  .@@#..@@  ..#+  .@@#..@@  ..#+  .@@",
"##$$@ .$.+@ .$@.##$$@ .$.+@ .$@.##$$@ .$.+@ .$@.##$$@ .$.+@ .$@.##$$@ .$.+@ .$@.",
"$#++ $$$.@@ $$..$#++ $$$.@@ $$..$#++ $$$.@@ $$..$#++ $$$.@@ $$..$#++ $$$.@@ $$..",
"$.@+ +$  @+$$+.$$.@+ +$  @+$$+.$$.@+ +$  @+$$+.$$.@+ +$  @+$$+.$$.@+ +$  @+$$+.$",
"$+@$@@.$$  $++ $$+@$@@.$$  $++ $$+@$@@.$$  $++ $$+@$@@.$$  $++ $$+@$@@.$$  $++ $",
".+@$@+#$+ @$@$  .+@$@+#$+ @$@$  .+@$@+#$+ @$@$  .+@$@+#$+ @$@$  .+@$@+#$+ @$@$  ",
".@$.@#+$+$@+@$  .@$.@#+$+$@+@$  .@$.@#+$+$@+@$  .@$.@#+$+$@+@$  .@$.@#+$+$@+@$  ",
"  .#+.@++.@@$+ .  .#+.@++.@@$+ .  .#+.@++.@@$+ .  .#+.@++.@@$+ .  .#+.@++.@@$+ .",
" +@#.$@+@$#+.@+. +@#.$@+@$#+.@+. +@#.$@+@$#+.@+. +@#.$@+@$#+.@+. +@#.$@+@$#+.@+.",
"+@@#$$@@+$$##+@#+@@#$$@@+$$##+@#+@@#$$@@+$$##+@#+@@#$$@@+$$##+@#+@@#$$@@+$$##+@#",
"@@+.$ @@$$+#.#+ @@+.$ @@$$+#.#+ @@+.$ @@$$+#.#+ @@+.$ @@$$+#.#+ @@+.$ @@$$+#.#+ ",
"@+. .  $+$+...# @+. .  $+$+...# @+. .  $+$+...# @+. .  $+$+...# @+. .  $+$+...# ",
"$+  $$ $++@$. .$$+  $$ $++@$. .$$+  $$ $++@$. .$$+  $$ $++@$. .$$+  $$ $++@$. .$",
"$$ ++$ +@+@   +$$$ ++$ +@+@   +$$$ ++$ +@+@   +$$$ ++$ +@+@   +$$$ ++$ +@+@   +$",
" . +@+ @@@.  $++ . +@+ @@@.  $++ . +@+ @@@.  $++ . +@+ @@@.  $++ . +@+ @@@.  $++"};
