/* XPM */
static char * leaves_3x2_xpm[] = {
"48 32 6 1",
" 	c None",
".	c #2A5115",
"+	c #3E771E",
"@	c #4B9225",
"#	c #1D380E",
"$	c #326018",
" .++@+  ..#  .+@ .++@+  ..#  .+@ .++@+  ..#  .+@",
"#..@@  ..#+  .@@#..@@  ..#+  .@@#..@@  ..#+  .@@",
"##$$@ .$.+@ .$@.##$$@ .$.+@ .$@.##$$@ .$.+@ .$@.",
"$#++ $$$.@@ $$..$#++ $$$.@@ $$..$#++ $$$.@@ $$..",
"$.@+ +$  @+$$+.$$.@+ +$  @+$$+.$$.@+ +$  @+$$+.$",
"$+@$@@.$$  $++ $$+@$@@.$$  $++ $$+@$@@.$$  $++ $",
".+@$@+#$+ @$@$  .+@$@+#$+ @$@$  .+@$@+#$+ @$@$  ",
".@$.@#+$+$@+@$  .@$.@#+$+$@+@$  .@$.@#+$+$@+@$  ",
"  .#+.@++.@@$+ .  .#+.@++.@@$+ .  .#+.@++.@@$+ .",
" +@#.$@+@$#+.@+. +@#.$@+@$#+.@+. +@#.$@+@$#+.@+.",
"+@@#$$@@+$$##+@#+@@#$$@@+$$##+@#+@@#$$@@+$$##+@#",
"@@+.$ @@$$+#.#+ @@+.$ @@$$+#.#+ @@+.$ @@$$+#.#+ ",
"@+. .  $+$+...# @+. .  $+$+...# @+. .  $+$+...# ",
"$+  $$ $++@$. .$$+  $$ $++@$. .$$+  $$ $++@$. .$",
"$$ ++$ +@+@   +$$$ ++$ +@+@   +$$$ ++$ +@+@   +$",
" . +@+ @@@.  $++ . +@+ @@@.  $++ . +@+ @@@.  $++",
" .++@+  ..#  .+@ .++@+  ..#  .+@ .++@+  ..#  .+@",
"#..@@  ..#+  .@@#..@@  ..#+  .@@#..@@  ..#+  .@@",
"##$$@ .$.+@ .$@.##$$@ .$.+@ .$@.##$$@ .$.+@ .$@.",
"$#++ $$$.@@ $$..$#++ $$$.@@ $$..$#++ $$$.@@ $$..",
"$.@+ +$  @+$$+.$$.@+ +$  @+$$+.$$.@+ +$  @+$$+.$",
"$+@$@@.$$  $++ $$+@$@@.$$  $++ $$+@$@@.$$  $++ $",
".+@$@+#$+ @$@$  .+@$@+#$+ @$@$  .+@$@+#$+ @$@$  ",
".@$.@#+$+$@+@$  .@$.@#+$+$@+@$  .@$.@#+$+$@+@$  ",
"  .#+.@++.@@$+ .  .#+.@++.@@$+ .  .#+.@++.@@$+ .",
" +@#.$@+@$#+.@+. +@#.$@+@$#+.@+. +@#.$@+@$#+.@+.",
"+@@#$$@@+$$##+@#+@@#$$@@+$$##+@#+@@#$$@@+$$##+@#",
"@@+.$ @@$$+#.#+ @@+.$ @@$$+#.#+ @@+.$ @@$$+#.#+ ",
"@+. .  $+$+...# @+. .  $+$+...# @+. .  $+$+...# ",
"$+  $$ $++@$. .$$+  $$ $++@$. .$$+  $$ $++@$. .$",
"$$ ++$ +@+@   +$$$ ++$ +@+@   +$$$ ++$ +@+@   +$",
" . +@+ @@@.  $++ . +@+ @@@.  $++ . +@+ @@@.  $++"};
