/* XPM */
static char * wood_xpm[] = {
"64 64 6 1",
" 	c #745A36",
".	c #4C3D26",
"+	c #917142",
"@	c #382B18",
"#	c #5F4A2B",
"$	c #987849",
" .+  @+  @ +.+ # .+  @+  @ +.+ # .+  @+  @ +.+ # .+  @+  @ +.+ #",
" .$# @$# @ +.  # .$# @$# @ +.  # .$# @$# @ +.  # .$# @$# @ +.  #",
" @## @$# . ..  # @## @$# . ..  # @## @$# . ..  # @## @$# . ..  #",
"+@ # . # # @. +#+@ # . # # @. +#+@ # . # # @. +#+@ # . # # @. +#",
"+. # @ #$# # .+ +. # @ #$# # .+ +. # @ #$# # .+ +. # @ #$# # .+ ",
"+ . +. .$#+. .+ + . +. .$#+. .+ + . +. .$#+. .+ + . +. .$#+. .+ ",
"# . +## + +  .+ # . +## + +  .+ # . +## + +  .+ # . +## + +  .+ ",
"# @ + #+  +# #+ # @ + #+  +# #+ # @ + #+  +# #+ # @ + #+  +# #+ ",
" .@$  #+ #+#+#+  .@$  #+ #+#+#+  .@$  #+ #+#+#+  .@$  #+ #+#+#+ ",
"  .$  #  #+.+ @   .$  #  #+.+ @   .$  #  #+.+ @   .$  #  #+.+ @ ",
"   + # @ # .+ @    + # @ # .+ @    + # @ # .+ @    + # @ # .+ @ ",
" . + # @$  @$ .  . + # @$  @$ .  . + # @$  @$ .  . + # @$  @$ . ",
"$.  +#+@$# @  # $.  +#+@$# @  # $.  +#+@$# @  # $.  +#+@$# @  # ",
"$ . +  .+# .    $ . +  .+# .    $ . +  .+# .    $ . +  .+# .    ",
"+ .+  +@ . ..+  + .+  +@ . ..+  + .+  +@ . ..+  + .+  +@ . ..+  ",
"+ .+. +. .  .+ #+ .+. +. .  .+ #+ .+. +. .  .+ #+ .+. +. .  .+ #",
" .+  @+  @ +.+ # .+  @+  @ +.+ # .+  @+  @ +.+ # .+  @+  @ +.+ #",
" .$# @$# @ +.  # .$# @$# @ +.  # .$# @$# @ +.  # .$# @$# @ +.  #",
" @## @$# . ..  # @## @$# . ..  # @## @$# . ..  # @## @$# . ..  #",
"+@ # . # # @. +#+@ # . # # @. +#+@ # . # # @. +#+@ # . # # @. +#",
"+. # @ #$# # .+ +. # @ #$# # .+ +. # @ #$# # .+ +. # @ #$# # .+ ",
"+ . +. .$#+. .+ + . +. .$#+. .+ + . +. .$#+. .+ + . +. .$#+. .+ ",
"# . +## + +  .+ # . +## + +  .+ # . +## + +  .+ # . +## + +  .+ ",
"# @ + #+  +# #+ # @ + #+  +# #+ # @ + #+  +# #+ # @ + #+  +# #+ ",
" .@$  #+ #+#+#+  .@$  #+ #+#+#+  .@$  #+ #+#+#+  .@$  #+ #+#+#+ ",
"  .$  #  #+.+ @   .$  #  #+.+ @   .$  #  #+.+ @   .$  #  #+.+ @ ",
"   + # @ # .+ @    + # @ # .+ @    + # @ # .+ @    + # @ # .+ @ ",
" . + # @$  @$ .  . + # @$  @$ .  . + # @$  @$ .  . + # @$  @$ . ",
"$.  +#+@$# @  # $.  +#+@$# @  # $.  +#+@$# @  # $.  +#+@$# @  # ",
"$ . +  .+# .    $ . +  .+# .    $ . +  .+# .    $ . +  .+# .    ",
"+ .+  +@ . ..+  + .+  +@ . ..+  + .+  +@ . ..+  + .+  +@ . ..+  ",
"+ .+. +. .  .+ #+ .+. +. .  .+ #+ .+. +. .  .+ #+ .+. +. .  .+ #",
" .+  @+  @ +.+ # .+  @+  @ +.+ # .+  @+  @ +.+ # .+  @+  @ +.+ #",
" .$# @$# @ +.  # .$# @$# @ +.  # .$# @$# @ +.  # .$# @$# @ +.  #",
" @## @$# . ..  # @## @$# . ..  # @## @$# . ..  # @## @$# . ..  #",
"+@ # . # # @. +#+@ # . # # @. +#+@ # . # # @. +#+@ # . # # @. +#",
"+. # @ #$# # .+ +. # @ #$# # .+ +. # @ #$# # .+ +. # @ #$# # .+ ",
"+ . +. .$#+. .+ + . +. .$#+. .+ + . +. .$#+. .+ + . +. .$#+. .+ ",
"# . +## + +  .+ # . +## + +  .+ # . +## + +  .+ # . +## + +  .+ ",
"# @ + #+  +# #+ # @ + #+  +# #+ # @ + #+  +# #+ # @ + #+  +# #+ ",
" .@$  #+ #+#+#+  .@$  #+ #+#+#+  .@$  #+ #+#+#+  .@$  #+ #+#+#+ ",
"  .$  #  #+.+ @   .$  #  #+.+ @   .$  #  #+.+ @   .$  #  #+.+ @ ",
"   + # @ # .+ @    + # @ # .+ @    + # @ # .+ @    + # @ # .+ @ ",
" . + # @$  @$ .  . + # @$  @$ .  . + # @$  @$ .  . + # @$  @$ . ",
"$.  +#+@$# @  # $.  +#+@$# @  # $.  +#+@$# @  # $.  +#+@$# @  # ",
"$ . +  .+# .    $ . +  .+# .    $ . +  .+# .    $ . +  .+# .    ",
"+ .+  +@ . ..+  + .+  +@ . ..+  + .+  +@ . ..+  + .+  +@ . ..+  ",
"+ .+. +. .  .+ #+ .+. +. .  .+ #+ .+. +. .  .+ #+ .+. +. .  .+ #",
" .+  @+  @ +.+ # .+  @+  @ +.+ # .+  @+  @ +.+ # .+  @+  @ +.+ #",
" .$# @$# @ +.  # .$# @$# @ +.  # .$# @$# @ +.  # .$# @$# @ +.  #",
" @## @$# . ..  # @## @$# . ..  # @## @$# . ..  # @## @$# . ..  #",
"+@ # . # # @. +#+@ # . # # @. +#+@ # . # # @. +#+@ # . # # @. +#",
"+. # @ #$# # .+ +. # @ #$# # .+ +. # @ #$# # .+ +. # @ #$# # .+ ",
"+ . +. .$#+. .+ + . +. .$#+. .+ + . +. .$#+. .+ + . +. .$#+. .+ ",
"# . +## + +  .+ # . +## + +  .+ # . +## + +  .+ # . +## + +  .+ ",
"# @ + #+  +# #+ # @ + #+  +# #+ # @ + #+  +# #+ # @ + #+  +# #+ ",
" .@$  #+ #+#+#+  .@$  #+ #+#+#+  .@$  #+ #+#+#+  .@$  #+ #+#+#+ ",
"  .$  #  #+.+ @   .$  #  #+.+ @   .$  #  #+.+ @   .$  #  #+.+ @ ",
"   + # @ # .+ @    + # @ # .+ @    + # @ # .+ @    + # @ # .+ @ ",
" . + # @$  @$ .  . + # @$  @$ .  . + # @$  @$ .  . + # @$  @$ . ",
"$.  +#+@$# @  # $.  +#+@$# @  # $.  +#+@$# @  # $.  +#+@$# @  # ",
"$ . +  .+# .    $ . +  .+# .    $ . +  .+# .    $ . +  .+# .    ",
"+ .+  +@ . ..+  + .+  +@ . ..+  + .+  +@ . ..+  + .+  +@ . ..+  ",
"+ .+. +. .  .+ #+ .+. +. .  .+ #+ .+. +. .  .+ #+ .+. +. .  .+ #"};
